# Blender 4.3.1
# www.blender.org
mtllib skater1_scarf_obj.mtl
o Plane.001
v -0.803665 0.000000 0.052308
v 0.093124 0.000000 0.070070
v -0.803665 0.000000 -0.052308
v 0.093124 0.000000 -0.070070
v -0.654200 0.000000 0.055268
v -0.504735 0.000000 0.058229
v -0.355271 0.000000 0.061189
v -0.205806 0.000000 0.064149
v -0.056341 0.000000 0.067110
v -0.056341 0.000000 -0.067110
v -0.205806 0.000000 -0.064149
v -0.355271 0.000000 -0.061189
v -0.504735 0.000000 -0.058229
v -0.654200 0.000000 -0.055268
vn -0.0000 1.0000 -0.0000
vt 0.833333 0.000000
vt 1.000000 0.000000
vt 1.000000 1.000000
vt 0.833333 1.000000
vt 0.000000 0.000000
vt 0.166667 0.000000
vt 0.166667 1.000000
vt 0.000000 1.000000
vt 0.333333 0.000000
vt 0.333333 1.000000
vt 0.500000 0.000000
vt 0.500000 1.000000
vt 0.666667 0.000000
vt 0.666667 1.000000
s 0
usemtl Material.001
f 9/1/1 2/2/1 4/3/1 10/4/1
f 1/5/1 5/6/1 14/7/1 3/8/1
f 5/6/1 6/9/1 13/10/1 14/7/1
f 6/9/1 7/11/1 12/12/1 13/10/1
f 7/11/1 8/13/1 11/14/1 12/12/1
f 8/13/1 9/1/1 10/4/1 11/14/1
